<svg version="1.2" xmlns="http://www.w3.org/2000/svg" viewBox="0 0 210 210" width="210" height="210"><defs><clipPath clipPathUnits="userSpaceOnUse" id="cp1"><path d="m24.58 0h162v206.77h-162z"/></clipPath><clipPath clipPathUnits="userSpaceOnUse" id="cp2"><path d="m24.58 0h162v206.77h-162z"/></clipPath></defs><style>.a{fill:#544c4d}.b{fill:#c1f622}.c{fill:#989a8f}.d{fill:#352b2c}</style><g clip-path="url(#cp1)"><path class="a" d="m186.4 121.5c0 44.6-36.3 80.9-80.9 80.9q-2 0-3.9 0c-6.2 3.1-11.4 4.3-15.6 4.3-7.3 0-11.8-3.6-14.2-6.5-1.6-1.9-2.5-4.2-3-6.6-27.3-13.9-44.2-41.5-44.2-72.1 0-29.4 15.8-55.2 39.3-69.3q-0.1 0-0.3 0c-6.3 0-12-3.8-12.3-4.1-0.6-0.3-0.9-1-0.9-1.6 1.3-17.8 5-41.8 23.7-45.1 16.8-3.1 23.8 12.6 25.1 16 6.4 1.1 11.1 3.3 11.4 3.5 0.6 0.3 1 0.8 1 1.4l2.1 18.7c40.8 4.2 72.7 38.7 72.7 80.5z"/></g><path class="b" d="m124.6 180.9c-8.8 3.5-20.6 6.7-26.5 8-1.5 0.4-3.1 0.7-4.8 1.1 0.4-3 2.4-10.1 12.6-12.2 9-1.9 15.5 1 18.7 3.1z"/><path class="c" d="m84.1 47.4c6.8-2 14-3.1 21.4-3.1 42.6 0 77.2 34.6 77.2 77.2 0 22.9-10 43.5-25.8 57.6 18.2-29.2 16.9-66.3 0.7-93.4q-0.1-0.2-0.2-0.3c0.2-1.3 0.4-2.1 0.4-2.1 0.1-0.9-0.4-1.8-1.3-2.1l-10.8-3.3c-0.5-0.2-1.1-0.1-1.6 0.2-0.4 0.3-0.7 0.8-0.8 1.3 0 0.1-0.3 3.2-1 7.6-5-1-9.9-3.6-13.9-7.7-7.4-7.3-9.8-17.4-7.1-25.7-15.5-7.2-28.8-7.4-37.2-6.2zm12.1-18c2.5 4.8 2.3 9.4 2 11.6q3.6-0.4 7.3-0.4 2.3 0 4.5 0.1l-1.9-16.9c-2.9-1.2-12.3-4.7-21.4-2.8-1.7 0.3-3.3 0.8-4.7 1.5 0.2 0 10.9 0.5 14.2 6.9zm-27.1 15.4c0.1-2 0.6-4.9 1.6-9.1q0.4-1.2 0.7-2.6 0.8-2.7 1.6-4.9c1-2.8 2.1-5.1 3.1-6.9 2.7-4.7 5-6.5 5.1-6.6 0.8-0.6 2-0.4 2.6 0.4 0.6 0.8 0.4 2-0.4 2.6 0 0-0.2 0.2-0.6 0.5q1.5-0.5 3.2-0.8c3.1-0.7 6.1-0.7 9-0.5-2.1-4.6-8.1-14.1-20.3-11.9-15.7 2.8-19.3 24.2-20.5 40.6 2.5 1.4 9.6 4.9 14.8 1.3q0-0.8 0.1-2.1z"/><g clip-path="url(#cp2)"><path class="d" d="m113.7 41l-2.1-18.7c0-0.6-0.4-1.1-1-1.4-0.3-0.2-5-2.4-11.4-3.5-1.3-3.4-8.3-19.1-25.1-16-18.7 3.3-22.4 27.3-23.7 45.1 0 0.6 0.3 1.3 0.8 1.6 0.4 0.3 6.1 4.1 12.4 4.1q0.2 0 0.3 0c-23.5 14.1-39.3 39.9-39.3 69.3 0 30.6 16.9 58.2 44.2 72.1 0.5 2.4 1.4 4.7 3 6.6 2.4 2.9 6.9 6.5 14.2 6.5 4.2 0 9.4-1.2 15.6-4.3q1.9 0 3.9 0c44.6 0 80.9-36.3 80.9-80.9 0-41.8-31.9-76.3-72.7-80.5zm-5.6-17.2l1.9 16.9q-2.2-0.1-4.5-0.1-3.7 0-7.3 0.4c-8.7 0.7-17 2.9-24.8 6.3l-0.6-2.7c0.2-2.2 0.8-5.6 2.2-10.5 1.2-4.4 2.6-7.7 3.9-10.1q1.4-0.9 3.1-1.5c1.4-0.7 3-1.2 4.7-1.5 9.1-1.9 18.5 1.6 21.4 2.8zm-53.9 21.8c1.2-16.4 4.8-37.8 20.5-40.6 12.2-2.2 18.2 7.3 20.3 11.9-2.9-0.2-5.9-0.2-9 0.5q-1.7 0.3-3.2 0.8c0.4-0.3 0.6-0.5 0.6-0.5 0.8-0.6 1-1.8 0.4-2.6-0.6-0.8-1.8-1-2.6-0.4-0.1 0.1-2.4 1.9-5.1 6.6-1 1.8-2.1 4.1-3.1 6.9q-0.8 2.2-1.6 4.9-0.3 1.4-0.7 2.6c-1 4.2-1.5 7.1-1.6 9.1q-0.1 1.3-0.1 2.1c-5.2 3.6-12.3 0.1-14.8-1.3zm102.7 133.5c-13.7 12.2-31.7 19.7-51.4 19.7q-1.4 0-2.8-0.1c-0.5-0.4-1.2-0.4-1.8-0.1-11.6 6.2-20.7 5.9-26.3-0.8-4.3-5.1-2.4-15.7-2.3-15.8 0.1-1-0.5-2-1.5-2.2-1-0.1-2 0.5-2.2 1.5 0 0.3-0.6 3.7-0.4 7.8-24.7-13.6-39.9-39.2-39.9-67.6 0-35.1 23.6-64.8 55.8-74.1 6.8-2 14-3.1 21.4-3.1 42.6 0 77.2 34.6 77.2 77.2 0 22.9-10 43.5-25.8 57.6zm-51.9-16.8c-16.5 3.5-25.8 14.8-26.1 23.7q-0.1 4.3 2.5 6.4c1.6 1.4 3.7 1.9 6.3 1.9 3.1 0 6.9-0.8 11.2-1.8 6.5-1.5 27.1-6.9 35.3-12.3 3.3-2.1 4.4-5.1 3.1-8.2-2.9-7-17.6-12.8-32.3-9.7zm-6.9 26.6c-1.5 0.4-3.1 0.7-4.8 1.1 0.4-3 2.4-10.1 12.6-12.2 9-1.9 15.5 1 18.7 3.1-8.8 3.5-20.6 6.7-26.5 8zm-12.6-35.1c-0.5-0.2-9.7-4.2-20-12-1.4 10.4 0.2 17.3 0.2 17.4 0.1 0.6 0 1.2-0.4 1.7-0.4 0.4-0.9 0.6-1.4 0.6q-0.1 0-0.2 0l-12.1-1.4c-0.9-0.1-1.6-0.8-1.6-1.8 0-0.5-0.2-10.9 3.9-26.8-9.8-9.8-16.6-18.8-16.7-18.9-0.5-0.7-0.5-1.6-0.1-2.2l7.6-10.6c0.3-0.5 0.9-0.8 1.5-0.8 0.7 0 1.2 0.3 1.5 0.9 0.1 0.1 5.5 8.9 10.9 16.7 7-17.7 16.1-24.8 16.6-25.1 0.4-0.3 0.9-0.4 1.3-0.3 0.5 0.1 1 0.3 1.3 0.7l8 11.3c0.3 0.4 0.4 0.9 0.3 1.4-0.1 0.5-0.3 0.9-0.8 1.2-0.1 0.1-11 7.5-16.4 22.2 8.8 6.3 22.9 12.1 23.1 12.1 0.5 0.2 0.9 0.6 1 1.1 0.2 0.5 0.2 1 0 1.5l-5.2 10.2c-0.3 0.6-0.9 1-1.6 1q-0.4 0-0.7-0.1zm83.2-21.4l-10.5 10.5c-0.4 0.4-0.8 0.6-1.3 0.6q-0.2 0-0.3-0.1c-0.6 0-1.1-0.4-1.4-0.9 0-0.1-4.2-8.2-9.9-16.5-4.2 11-8.3 20.6-8.4 20.7-0.2 0.5-0.6 0.9-1.1 1q-0.3 0.2-0.6 0.2-0.4 0-0.8-0.2l-13.6-6.7c-0.4-0.2-0.8-0.6-0.9-1.2-0.2-0.5-0.1-1 0.2-1.5 0.2-0.1 9.8-13.8 15.1-24.6-9.7-9.4-23.2-18.3-23.3-18.4-0.5-0.3-0.8-0.8-0.8-1.4-0.1-0.5 0.1-1.1 0.5-1.5l9.2-8.5c0.7-0.7 1.8-0.7 2.5-0.1 0.1 0.1 8.5 7.9 16.7 15.9 1-4.5 1.8-9.1 2.3-12.7 0.7-4.4 1-7.5 1-7.6 0.1-0.5 0.4-1 0.8-1.3 0.5-0.3 1.1-0.4 1.6-0.2l10.8 3.3c0.9 0.3 1.4 1.2 1.3 2.1 0 0-0.2 0.8-0.4 2.1-0.9 4.3-3.1 14.8-6.6 25.4 8.5 8.9 17.8 18.9 17.9 19.1 0.7 0.7 0.7 1.8 0 2.5z"/><path fill-rule="evenodd" d="m-121-403v3h-1v-3z"/></g></svg>